# Blender 4.5.2 LTS
# www.blender.org
mtllib moneta.mtl
o Cylinder
v 0.000000 -0.065000 0.000000
v 0.000000 0.065000 0.000000
v 0.000000 -0.065000 -0.670000
v 0.000000 0.065000 -0.670000
v 0.130711 -0.065000 -0.657126
v 0.130711 0.065000 -0.657126
v 0.256398 -0.065000 -0.618999
v 0.256398 0.065000 -0.618999
v 0.372232 -0.065000 -0.557085
v 0.372232 0.065000 -0.557085
v 0.473762 -0.065000 -0.473762
v 0.473762 0.065000 -0.473762
v 0.557085 -0.065000 -0.372232
v 0.557085 0.065000 -0.372232
v 0.618999 -0.065000 -0.256398
v 0.618999 0.065000 -0.256398
v 0.657126 -0.065000 -0.130711
v 0.657126 0.065000 -0.130711
v 0.670000 -0.065000 0.000000
v 0.670000 0.065000 0.000000
v 0.657126 -0.065000 0.130711
v 0.657126 0.065000 0.130711
v 0.618999 -0.065000 0.256398
v 0.618999 0.065000 0.256398
v 0.557085 -0.065000 0.372232
v 0.557085 0.065000 0.372232
v 0.473762 -0.065000 0.473762
v 0.473762 0.065000 0.473762
v 0.372232 -0.065000 0.557085
v 0.372232 0.065000 0.557085
v 0.256398 -0.065000 0.618999
v 0.256398 0.065000 0.618999
v 0.130711 -0.065000 0.657126
v 0.130711 0.065000 0.657126
v 0.000000 -0.065000 0.670000
v 0.000000 0.065000 0.670000
v -0.130711 -0.065000 0.657126
v -0.130711 0.065000 0.657126
v -0.256398 -0.065000 0.618999
v -0.256398 0.065000 0.618999
v -0.372232 -0.065000 0.557085
v -0.372232 0.065000 0.557085
v -0.473762 -0.065000 0.473762
v -0.473762 0.065000 0.473762
v -0.557085 -0.065000 0.372232
v -0.557085 0.065000 0.372232
v -0.618999 -0.065000 0.256398
v -0.618999 0.065000 0.256398
v -0.657126 -0.065000 0.130711
v -0.657126 0.065000 0.130711
v -0.670000 -0.065000 0.000000
v -0.670000 0.065000 0.000000
v -0.657126 -0.065000 -0.130711
v -0.657126 0.065000 -0.130711
v -0.618999 -0.065000 -0.256398
v -0.618999 0.065000 -0.256398
v -0.557085 -0.065000 -0.372232
v -0.557085 0.065000 -0.372232
v -0.473762 -0.065000 -0.473762
v -0.473762 0.065000 -0.473762
v -0.372232 -0.065000 -0.557085
v -0.372232 0.065000 -0.557085
v -0.256398 -0.065000 -0.618999
v -0.256398 0.065000 -0.618999
v -0.130711 -0.065000 -0.657126
v -0.130711 0.065000 -0.657126
vn -0.0000 -1.0000 -0.0000
vn -0.0000 1.0000 -0.0000
vn 0.0980 -0.0000 -0.9952
vn 0.2903 -0.0000 -0.9569
vn 0.4714 -0.0000 -0.8819
vn 0.6344 -0.0000 -0.7730
vn 0.7730 -0.0000 -0.6344
vn 0.8819 -0.0000 -0.4714
vn 0.9569 -0.0000 -0.2903
vn 0.9952 -0.0000 -0.0980
vn 0.9952 -0.0000 0.0980
vn 0.9569 -0.0000 0.2903
vn 0.8819 -0.0000 0.4714
vn 0.7730 -0.0000 0.6344
vn 0.6344 -0.0000 0.7730
vn 0.4714 -0.0000 0.8819
vn 0.2903 -0.0000 0.9569
vn 0.0980 -0.0000 0.9952
vn -0.0980 -0.0000 0.9952
vn -0.2903 -0.0000 0.9569
vn -0.4714 -0.0000 0.8819
vn -0.6344 -0.0000 0.7730
vn -0.7730 -0.0000 0.6344
vn -0.8819 -0.0000 0.4714
vn -0.9569 -0.0000 0.2903
vn -0.9952 -0.0000 0.0980
vn -0.9952 -0.0000 -0.0980
vn -0.9569 -0.0000 -0.2903
vn -0.8819 -0.0000 -0.4714
vn -0.7730 -0.0000 -0.6344
vn -0.6344 -0.0000 -0.7730
vn -0.4714 -0.0000 -0.8819
vn -0.2903 -0.0000 -0.9569
vn -0.0980 -0.0000 -0.9952
vt 0.250000 0.250000
vt 0.055812 0.409366
vt 0.028453 0.368419
vt 0.250000 0.750000
vt 0.090634 0.944188
vt 0.055812 0.909366
vt 0.877269 0.875000
vt 0.939130 0.875000
vt 0.939130 0.937500
vt 0.877269 0.937500
vt 0.009607 0.322922
vt 0.131581 0.971547
vt 0.939130 1.000000
vt 0.877269 1.000000
vt 0.000000 0.274623
vt 0.177078 0.990393
vt 0.707816 1.000000
vt 0.645956 1.000000
vt 0.645956 0.937500
vt 0.707816 0.937500
vt 0.000000 0.225377
vt 0.225377 1.000000
vt 0.645956 0.875000
vt 0.707816 0.875000
vt 0.009607 0.177078
vt 0.274623 1.000000
vt 0.645956 0.812500
vt 0.707816 0.812500
vt 0.028453 0.131581
vt 0.322922 0.990393
vt 0.645956 0.750000
vt 0.707816 0.750000
vt 0.055812 0.090634
vt 0.368419 0.971547
vt 0.645956 0.687500
vt 0.707817 0.687500
vt 0.090634 0.055812
vt 0.409366 0.944188
vt 0.645956 0.625000
vt 0.707817 0.625000
vt 0.131581 0.028453
vt 0.444188 0.909366
vt 0.645956 0.562500
vt 0.707817 0.562500
vt 0.177078 0.009607
vt 0.471547 0.868419
vt 0.645956 0.500000
vt 0.707817 0.500000
vt 0.225377 0.000000
vt 0.490393 0.822922
vt 0.645956 0.437500
vt 0.707817 0.437500
vt 0.274623 0.000000
vt 0.500000 0.774623
vt 0.645956 0.375000
vt 0.707817 0.375000
vt 0.322922 0.009607
vt 0.500000 0.725377
vt 0.645956 0.312500
vt 0.707817 0.312500
vt 0.368419 0.028453
vt 0.490393 0.677078
vt 0.645956 0.250000
vt 0.707817 0.250000
vt 0.409366 0.055812
vt 0.471547 0.631581
vt 0.645956 0.187500
vt 0.707817 0.187500
vt 0.444188 0.090634
vt 0.444188 0.590634
vt 0.645956 0.125000
vt 0.707817 0.125000
vt 0.471547 0.131581
vt 0.409366 0.555812
vt 0.645956 0.062500
vt 0.707817 0.062500
vt 0.490393 0.177078
vt 0.368419 0.528453
vt 0.645956 0.000000
vt 0.707817 0.000000
vt 0.500000 0.225377
vt 0.322922 0.509607
vt 0.877269 0.000000
vt 0.939130 0.000000
vt 0.939130 0.062500
vt 0.877269 0.062500
vt 0.500000 0.274623
vt 0.274623 0.500000
vt 0.939130 0.125000
vt 0.877269 0.125000
vt 0.490393 0.322922
vt 0.225377 0.500000
vt 0.939130 0.187500
vt 0.877269 0.187500
vt 0.471547 0.368419
vt 0.177078 0.509607
vt 0.939130 0.250000
vt 0.877269 0.250000
vt 0.444188 0.409366
vt 0.131581 0.528453
vt 0.939130 0.312500
vt 0.877269 0.312500
vt 0.409366 0.444188
vt 0.090634 0.555812
vt 0.939130 0.375000
vt 0.877269 0.375000
vt 0.368419 0.471547
vt 0.055812 0.590634
vt 0.939130 0.437500
vt 0.877269 0.437500
vt 0.322922 0.490393
vt 0.028453 0.631581
vt 0.939130 0.500000
vt 0.877269 0.500000
vt 0.274623 0.500000
vt 0.009607 0.677078
vt 0.939130 0.562500
vt 0.877269 0.562500
vt 0.225377 0.500000
vt 0.000000 0.725377
vt 0.939130 0.625000
vt 0.877269 0.625000
vt 0.177078 0.490393
vt 0.000000 0.774623
vt 0.939130 0.687500
vt 0.877269 0.687500
vt 0.131581 0.471547
vt 0.009607 0.822922
vt 0.939130 0.750000
vt 0.877269 0.750000
vt 0.090634 0.444188
vt 0.028453 0.868419
vt 0.939130 0.812500
vt 0.877269 0.812500
s 0
f 1/1/1 3/2/1 5/3/1
f 2/4/2 6/5/2 4/6/2
f 3/7/3 4/8/3 6/9/3 5/10/3
f 1/1/1 5/3/1 7/11/1
f 2/4/2 8/12/2 6/5/2
f 5/10/4 6/9/4 8/13/4 7/14/4
f 1/1/1 7/11/1 9/15/1
f 2/4/2 10/16/2 8/12/2
f 7/17/5 8/18/5 10/19/5 9/20/5
f 1/1/1 9/15/1 11/21/1
f 2/4/2 12/22/2 10/16/2
f 9/20/6 10/19/6 12/23/6 11/24/6
f 1/1/1 11/21/1 13/25/1
f 2/4/2 14/26/2 12/22/2
f 11/24/7 12/23/7 14/27/7 13/28/7
f 1/1/1 13/25/1 15/29/1
f 2/4/2 16/30/2 14/26/2
f 13/28/8 14/27/8 16/31/8 15/32/8
f 1/1/1 15/29/1 17/33/1
f 2/4/2 18/34/2 16/30/2
f 15/32/9 16/31/9 18/35/9 17/36/9
f 1/1/1 17/33/1 19/37/1
f 2/4/2 20/38/2 18/34/2
f 17/36/10 18/35/10 20/39/10 19/40/10
f 1/1/1 19/37/1 21/41/1
f 2/4/2 22/42/2 20/38/2
f 19/40/11 20/39/11 22/43/11 21/44/11
f 1/1/1 21/41/1 23/45/1
f 2/4/2 24/46/2 22/42/2
f 21/44/12 22/43/12 24/47/12 23/48/12
f 1/1/1 23/45/1 25/49/1
f 2/4/2 26/50/2 24/46/2
f 23/48/13 24/47/13 26/51/13 25/52/13
f 1/1/1 25/49/1 27/53/1
f 2/4/2 28/54/2 26/50/2
f 25/52/14 26/51/14 28/55/14 27/56/14
f 1/1/1 27/53/1 29/57/1
f 2/4/2 30/58/2 28/54/2
f 27/56/15 28/55/15 30/59/15 29/60/15
f 1/1/1 29/57/1 31/61/1
f 2/4/2 32/62/2 30/58/2
f 29/60/16 30/59/16 32/63/16 31/64/16
f 1/1/1 31/61/1 33/65/1
f 2/4/2 34/66/2 32/62/2
f 31/64/17 32/63/17 34/67/17 33/68/17
f 1/1/1 33/65/1 35/69/1
f 2/4/2 36/70/2 34/66/2
f 33/68/18 34/67/18 36/71/18 35/72/18
f 1/1/1 35/69/1 37/73/1
f 2/4/2 38/74/2 36/70/2
f 35/72/19 36/71/19 38/75/19 37/76/19
f 1/1/1 37/73/1 39/77/1
f 2/4/2 40/78/2 38/74/2
f 37/76/20 38/75/20 40/79/20 39/80/20
f 1/1/1 39/77/1 41/81/1
f 2/4/2 42/82/2 40/78/2
f 39/83/21 40/84/21 42/85/21 41/86/21
f 1/1/1 41/81/1 43/87/1
f 2/4/2 44/88/2 42/82/2
f 41/86/22 42/85/22 44/89/22 43/90/22
f 1/1/1 43/87/1 45/91/1
f 2/4/2 46/92/2 44/88/2
f 43/90/23 44/89/23 46/93/23 45/94/23
f 1/1/1 45/91/1 47/95/1
f 2/4/2 48/96/2 46/92/2
f 45/94/24 46/93/24 48/97/24 47/98/24
f 1/1/1 47/95/1 49/99/1
f 2/4/2 50/100/2 48/96/2
f 47/98/25 48/97/25 50/101/25 49/102/25
f 1/1/1 49/99/1 51/103/1
f 2/4/2 52/104/2 50/100/2
f 49/102/26 50/101/26 52/105/26 51/106/26
f 1/1/1 51/103/1 53/107/1
f 2/4/2 54/108/2 52/104/2
f 51/106/27 52/105/27 54/109/27 53/110/27
f 1/1/1 53/107/1 55/111/1
f 2/4/2 56/112/2 54/108/2
f 53/110/28 54/109/28 56/113/28 55/114/28
f 1/1/1 55/111/1 57/115/1
f 2/4/2 58/116/2 56/112/2
f 55/114/29 56/113/29 58/117/29 57/118/29
f 1/1/1 57/115/1 59/119/1
f 2/4/2 60/120/2 58/116/2
f 57/118/30 58/117/30 60/121/30 59/122/30
f 1/1/1 59/119/1 61/123/1
f 2/4/2 62/124/2 60/120/2
f 59/122/31 60/121/31 62/125/31 61/126/31
f 1/1/1 61/123/1 63/127/1
f 2/4/2 64/128/2 62/124/2
f 61/126/32 62/125/32 64/129/32 63/130/32
f 1/1/1 63/127/1 65/131/1
f 2/4/2 66/132/2 64/128/2
f 63/130/33 64/129/33 66/133/33 65/134/33
f 1/1/1 65/131/1 3/2/1
f 2/4/2 4/6/2 66/132/2
f 65/134/34 66/133/34 4/8/34 3/7/34
